<?xml version="1.0" standalone="no"?>
<!DOCTYPE svg PUBLIC "-//W3C//DTD SVG 20010904//EN"
 "http://www.w3.org/TR/2001/REC-SVG-20010904/DTD/svg10.dtd">
<svg version="1.0" xmlns="http://www.w3.org/2000/svg"
 width="200.000000pt" height="200.000000pt" viewBox="0 0 200.000000 200.000000"
 preserveAspectRatio="xMidYMid meet">
<metadata>
Created by potrace 1.11, written by Peter Selinger 2001-2013
</metadata>
<g transform="translate(0.000000,200.000000) scale(0.100000,-0.100000)"
fill="#000000" stroke="none">
<path d="M400 1710 l0 -220 -61 0 c-84 0 -99 -10 -99 -65 l0 -45 -83 0 c-113
0 -117 -4 -117 -141 0 -57 4 -109 8 -116 13 -20 61 -33 127 -33 l64 0 3 -458
3 -459 29 -37 c52 -69 25 -67 739 -64 l642 3 34 24 c18 13 42 42 52 65 17 38
19 74 19 484 l0 442 64 0 c67 0 115 12 128 33 4 7 8 60 8 118 0 135 -4 139
-118 139 l-82 0 0 45 c0 55 -15 65 -99 65 l-61 0 0 220 0 220 -600 0 -600 0 0
-220z m1170 -121 l0 -311 -57 7 c-32 3 -87 6 -123 5 -36 0 -206 -3 -379 -6
-209 -3 -318 -1 -325 6 -13 13 -133 13 -141 0 -3 -5 -28 -10 -56 -10 l-49 0 0
310 0 310 565 0 565 0 0 -311z m-1330 -264 c0 -25 -1 -25 -85 -25 -77 0 -85 2
-85 19 0 26 12 29 98 30 70 1 72 0 72 -24z m1674 19 c9 -3 16 -15 16 -25 0
-17 -8 -19 -85 -19 -84 0 -85 0 -85 25 0 24 2 25 69 25 38 0 76 -3 85 -6z
m-1301 -114 c72 1 697 1 775 0 31 0 85 2 120 5 l62 7 0 -86 0 -85 -214 -3
c-211 -3 -215 -3 -240 -27 -36 -34 -36 -88 0 -122 23 -21 37 -24 134 -29 87
-4 112 -9 129 -24 43 -39 18 -116 -41 -131 -13 -3 -173 -5 -356 -3 l-334 3
-24 28 c-31 36 -31 71 1 102 22 23 32 25 120 25 110 0 145 13 165 60 10 24 10
36 0 59 -22 53 -56 61 -274 61 l-196 0 0 86 0 86 58 -7 c31 -3 83 -6 115 -5z
m-225 -667 c-3 -36 -5 -38 -38 -38 -29 0 -36 4 -38 23 -6 39 5 52 43 52 36 0
36 -1 33 -37z m120 0 c-3 -36 -5 -38 -38 -38 -33 0 -35 2 -38 38 l-3 37 41 0
41 0 -3 -37z m120 0 c-3 -36 -5 -38 -38 -38 -33 0 -35 2 -38 38 l-3 37 41 0
41 0 -3 -37z m117 -3 c0 -33 -2 -35 -35 -35 -33 0 -35 2 -38 38 l-3 38 38 -3
c36 -3 38 -5 38 -38z m123 12 c5 -32 -15 -52 -49 -52 -22 0 -30 6 -35 25 -10
42 1 57 43 53 31 -2 39 -7 41 -26z m110 -9 c-3 -36 -5 -38 -38 -38 -29 0 -36
4 -38 23 -6 39 5 52 43 52 36 0 36 -1 33 -37z m120 0 c-3 -36 -5 -38 -38 -38
-33 0 -35 2 -38 38 l-3 37 41 0 41 0 -3 -37z m117 -3 c0 -33 -2 -35 -35 -35
-33 0 -35 2 -38 38 l-3 38 38 -3 c36 -3 38 -5 38 -38z m121 25 c4 -8 3 -26 0
-40 -5 -20 -13 -25 -36 -25 -33 0 -55 29 -45 60 8 25 72 29 81 5z m112 -22
c-3 -36 -5 -38 -38 -38 -29 0 -36 4 -38 23 -6 39 5 52 43 52 36 0 36 -1 33
-37z m120 0 c-3 -36 -5 -38 -38 -38 -33 0 -35 2 -38 38 l-3 37 41 0 41 0 -3
-37z m120 0 c-3 -36 -5 -38 -38 -38 -33 0 -35 2 -38 38 l-3 37 41 0 41 0 -3
-37z m-1240 -120 c-3 -36 -5 -38 -38 -38 -29 0 -36 4 -38 23 -6 39 5 52 43 52
36 0 36 -1 33 -37z m120 0 c-3 -36 -5 -38 -38 -38 -33 0 -35 2 -38 38 l-3 37
41 0 41 0 -3 -37z m117 -3 c0 -33 -2 -35 -35 -35 -33 0 -35 2 -38 38 l-3 38
38 -3 c36 -3 38 -5 38 -38z m120 0 c0 -33 -2 -35 -37 -38 -29 -3 -38 1 -43 17
-3 12 -3 30 0 42 5 16 14 20 43 17 35 -3 37 -5 37 -38z m115 -1 l0 -40 -37 3
c-31 2 -39 7 -41 26 -6 39 5 52 43 52 34 0 35 -1 35 -41z m118 4 c-3 -36 -5
-38 -38 -38 -29 0 -36 4 -38 23 -6 39 5 52 43 52 36 0 36 -1 33 -37z m117 -3
c0 -33 -2 -35 -35 -35 -33 0 -35 2 -38 38 l-3 38 38 -3 c36 -3 38 -5 38 -38z
m120 0 c0 -33 -2 -35 -35 -35 -33 0 -35 2 -38 38 l-3 38 38 -3 c36 -3 38 -5
38 -38z m121 25 c4 -8 3 -26 0 -40 -5 -21 -12 -25 -41 -25 -29 0 -36 4 -41 25
-10 40 1 55 41 55 22 0 38 -6 41 -15z m112 -22 c-3 -36 -5 -38 -38 -38 -29 0
-36 4 -38 23 -6 39 5 52 43 52 36 0 36 -1 33 -37z m120 0 c-3 -36 -5 -38 -38
-38 -29 0 -36 4 -38 23 -6 39 5 52 43 52 36 0 36 -1 33 -37z m-1123 -123 c0
-33 -2 -35 -35 -35 -29 0 -36 4 -38 23 -6 40 5 54 40 50 30 -3 33 -6 33 -38z
m120 0 c0 -33 -2 -35 -35 -35 -33 0 -35 2 -38 38 l-3 38 38 -3 c36 -3 38 -5
38 -38z m120 0 c0 -33 -2 -35 -37 -38 l-38 -3 0 41 0 41 38 -3 c35 -3 37 -5
37 -38z m120 20 c3 -11 3 -29 0 -41 -5 -16 -14 -20 -43 -17 -30 2 -38 7 -40
26 -6 39 5 52 42 52 26 0 36 -5 41 -20z m115 -21 l0 -40 -37 3 c-31 2 -39 7
-41 26 -6 39 5 52 43 52 34 0 35 -1 35 -41z m115 1 c0 -33 -2 -35 -35 -35 -29
0 -36 4 -38 23 -6 40 5 54 40 50 30 -3 33 -6 33 -38z m120 0 c0 -33 -2 -35
-37 -38 l-38 -3 0 41 0 41 38 -3 c35 -3 37 -5 37 -38z m120 0 c0 -33 -2 -35
-37 -38 -29 -3 -38 1 -43 17 -3 12 -3 30 0 42 5 16 14 20 43 17 35 -3 37 -5
37 -38z m115 -1 l0 -40 -37 3 c-31 2 -39 7 -41 26 -6 39 5 52 43 52 34 0 35
-1 35 -41z m120 0 l0 -40 -37 3 c-31 2 -39 7 -41 26 -6 39 5 52 43 52 34 0 35
-1 35 -41z m-120 -124 l0 -45 -450 0 -450 0 0 45 0 45 450 0 450 0 0 -45z"/>
</g>
</svg>
